<?xml version="1.0" encoding="utf-8"?>
<!-- Generator: Adobe Illustrator 24.2.1, SVG Export Plug-In . SVG Version: 6.00 Build 0)  -->
<svg version="1.1" id="Laag_1" xmlns="http://www.w3.org/2000/svg" xmlns:xlink="http://www.w3.org/1999/xlink" x="0px" y="0px"
	 viewBox="0 0 1878 267.8" style="enable-background:new 0 0 1878 267.8;" xml:space="preserve">
<style type="text/css">
	.st0{fill:none;}
	.st1{fill:#333333;}
</style>
<g>
	<path class="st0" d="M1253,213.4c-0.8-1-1.9-1.8-3.2-2.4c-1.3-0.6-2.8-0.9-4.5-0.9c-3.4,0-6,1-8,2.9c-1.9,1.9-3.1,4.6-3.7,8.1h21.8
		c0-1.5-0.2-2.9-0.6-4.3C1254.5,215.5,1253.8,214.4,1253,213.4z"/>
	<path class="st0" d="M1382.6,213.4c-0.8-1-1.9-1.8-3.2-2.4c-1.3-0.6-2.8-0.9-4.5-0.9c-3.4,0-6,1-8,2.9c-1.9,1.9-3.1,4.6-3.7,8.1
		h21.8c0-1.5-0.2-2.9-0.6-4.3C1384.1,215.5,1383.5,214.4,1382.6,213.4z"/>
	<path class="st0" d="M1036.7,232.6c-1.4,0.7-2.4,1.4-2.9,2.3c-0.6,0.9-0.9,1.8-0.9,2.9c0,2.1,0.6,3.5,1.8,4.4
		c1.2,0.9,2.8,1.3,4.7,1.3c1.2,0,2.3-0.1,3.3-0.3c1-0.2,2-0.5,2.8-1c0.9-0.4,1.8-1,2.6-1.6c0.8-0.6,1.7-1.4,2.5-2.2v-8.1
		c-3.4,0-6.2,0.2-8.5,0.6C1039.9,231.4,1038.1,232,1036.7,232.6z"/>
	<path class="st0" d="M526.2,42.7c0-6.9-2.3-12.2-6.8-15.9c-4.6-3.7-11.5-5.6-20.9-5.6h-16.2v45.2h15.8c4.8,0,8.9-0.6,12.5-1.8
		c3.5-1.2,6.5-2.8,8.8-4.9c2.3-2.1,4-4.6,5.1-7.5C525.6,49.4,526.2,46.2,526.2,42.7z"/>
	<path class="st0" d="M1183.4,34c-0.9-2.7-1.8-5.7-2.7-8.9c-0.9,3.2-1.7,6.2-2.6,8.9c-0.8,2.8-1.7,5.2-2.5,7.3l-16.6,45.1h43.4
		l-16.6-45.3C1185.2,39.1,1184.4,36.7,1183.4,34z"/>
	<path class="st0" d="M1193,209.8c-2.9,0-5,0.7-6.4,2.1c-1.4,1.4-2.1,3.3-2.1,5.7c0,1.1,0.2,2.2,0.5,3.2c0.4,1,0.9,1.8,1.6,2.5
		c0.7,0.7,1.6,1.3,2.7,1.6c1.1,0.4,2.3,0.6,3.7,0.6c1.4,0,2.7-0.2,3.8-0.6c1.1-0.4,2-0.9,2.7-1.6c0.7-0.7,1.2-1.5,1.6-2.5
		c0.4-1,0.5-2,0.5-3.2c0-2.4-0.7-4.3-2.1-5.7C1198,210.5,1195.9,209.8,1193,209.8z"/>
	<path class="st0" d="M1139.6,232.6c-1.4,0.7-2.4,1.4-2.9,2.3c-0.6,0.9-0.9,1.8-0.9,2.9c0,2.1,0.6,3.5,1.8,4.4
		c1.2,0.9,2.8,1.3,4.7,1.3c1.2,0,2.3-0.1,3.3-0.3c1-0.2,2-0.5,2.8-1c0.9-0.4,1.8-1,2.6-1.6c0.8-0.6,1.7-1.4,2.5-2.2v-8.1
		c-3.4,0-6.2,0.2-8.5,0.6C1142.8,231.4,1140.9,232,1139.6,232.6z"/>
	<path class="st0" d="M1182.9,250.2c-0.8,1-1.2,2.1-1.2,3.4c0,0.8,0.2,1.6,0.6,2.4s1.1,1.4,2,1.9s2.1,1,3.6,1.2
		c1.5,0.3,3.3,0.4,5.4,0.4c2.2,0,4-0.2,5.6-0.5c1.6-0.3,2.9-0.8,3.9-1.4c1-0.6,1.8-1.3,2.2-2.1c0.5-0.8,0.7-1.7,0.7-2.7
		c0-1-0.3-1.7-0.8-2.4c-0.6-0.6-1.3-1.1-2.3-1.4c-1-0.3-2.1-0.6-3.4-0.7c-1.3-0.2-2.7-0.2-4.1-0.2c-1.5,0-3,0-4.5,0
		s-3.1-0.2-4.5-0.5C1184.8,248.3,1183.7,249.2,1182.9,250.2z"/>
	<path class="st0" d="M1083.7,42.7c0-6.9-2.3-12.2-6.8-15.9c-4.6-3.7-11.5-5.6-20.9-5.6h-16.2v45.2h15.8c4.8,0,8.9-0.6,12.5-1.8
		c3.5-1.2,6.5-2.8,8.8-4.9c2.3-2.1,4-4.6,5.1-7.5C1083.1,49.4,1083.7,46.2,1083.7,42.7z"/>
	<path class="st0" d="M549.1,210.7c-4.1,0-7.1,1.4-9,4.1c-1.9,2.7-2.9,6.7-2.9,11.9c0,5.2,1,9.1,2.9,11.8c1.9,2.7,5,4.1,9,4.1
		c4,0,7-1.4,8.9-4.1c1.9-2.7,2.9-6.7,2.9-11.9c0-5.2-1-9.2-2.9-11.9C556.1,212,553.1,210.7,549.1,210.7z"/>
	<path class="st0" d="M1573.9,34.5c-3.7-4.1-8.2-7.3-13.5-9.5c-5.3-2.2-11.3-3.3-17.9-3.3c-6.7,0-12.7,1.1-18,3.3
		c-5.3,2.2-9.9,5.4-13.6,9.5c-3.7,4.1-6.6,9.2-8.6,15.1c-2,5.9-3,12.6-3,20.1c0,7.5,1,14.2,3,20.1c2,5.9,4.9,11,8.6,15.1
		c3.7,4.1,8.3,7.3,13.6,9.5c5.3,2.2,11.3,3.3,18,3.3c6.7,0,12.6-1.1,17.9-3.3c5.3-2.2,9.8-5.4,13.5-9.5c3.7-4.1,6.5-9.1,8.5-15.1
		c2-5.9,3-12.6,3-20.1c0-7.5-1-14.2-3-20.1S1577.6,38.7,1573.9,34.5z"/>
	<path class="st0" d="M781.5,210.7c-4.1,0-7.1,1.4-9,4.1c-1.9,2.7-2.9,6.7-2.9,11.9c0,5.2,1,9.1,2.9,11.8c1.9,2.7,5,4.1,9,4.1
		c4,0,7-1.4,8.9-4.1c1.9-2.7,2.9-6.7,2.9-11.9c0-5.2-1-9.2-2.9-11.9C788.5,212,785.5,210.7,781.5,210.7z"/>
	<path class="st0" d="M1715.1,34.5c-3.7-4.1-8.2-7.3-13.5-9.5c-5.3-2.2-11.3-3.3-17.9-3.3c-6.7,0-12.7,1.1-18,3.3
		c-5.3,2.2-9.9,5.4-13.6,9.5c-3.7,4.1-6.6,9.2-8.6,15.1c-2,5.9-3,12.6-3,20.1c0,7.5,1,14.2,3,20.1c2,5.9,4.9,11,8.6,15.1
		c3.7,4.1,8.3,7.3,13.6,9.5c5.3,2.2,11.3,3.3,18,3.3c6.7,0,12.6-1.1,17.9-3.3c5.3-2.2,9.8-5.4,13.5-9.5c3.7-4.1,6.5-9.1,8.5-15.1
		c2-5.9,3-12.6,3-20.1c0-7.5-1-14.2-3-20.1C1721.6,43.7,1718.8,38.7,1715.1,34.5z"/>
	<path class="st0" d="M660.7,211.5c-1.6-0.7-3.2-1-5-1c-1.8,0-3.4,0.3-4.8,1s-2.6,1.7-3.6,3c-1,1.3-1.8,3-2.3,5.1
		c-0.5,2.1-0.8,4.5-0.8,7.3c0,2.8,0.2,5.2,0.7,7.2c0.5,2,1.1,3.6,2,4.8c0.8,1.2,1.9,2.1,3.1,2.7c1.2,0.5,2.6,0.8,4.1,0.8
		c2.4,0,4.5-0.5,6.2-1.5c1.7-1,3.3-2.4,4.8-4.3v-21.7C663.7,213.3,662.2,212.1,660.7,211.5z"/>
	<path class="st0" d="M878.8,213.4c-0.8-1-1.9-1.8-3.2-2.4c-1.3-0.6-2.8-0.9-4.5-0.9c-3.4,0-6,1-8,2.9c-1.9,1.9-3.1,4.6-3.7,8.1
		h21.8c0-1.5-0.2-2.9-0.6-4.3C880.3,215.5,879.6,214.4,878.8,213.4z"/>
	<path class="st0" d="M736.8,104.9c3.7,4.1,8.3,7.3,13.6,9.5c5.3,2.2,11.3,3.3,18,3.3c6.7,0,12.6-1.1,17.9-3.3
		c5.3-2.2,9.8-5.4,13.5-9.5c3.7-4.1,6.5-9.1,8.5-15.1c2-5.9,3-12.6,3-20.1c0-7.5-1-14.2-3-20.1c-2-5.9-4.8-11-8.5-15.1
		c-3.7-4.1-8.2-7.3-13.5-9.5c-5.3-2.2-11.3-3.3-17.9-3.3c-6.7,0-12.7,1.1-18,3.3c-5.3,2.2-9.9,5.4-13.6,9.5
		c-3.7,4.1-6.6,9.2-8.6,15.1c-2,5.9-3,12.6-3,20.1c0,7.5,1,14.2,3,20.1C730.2,95.8,733.1,100.8,736.8,104.9z"/>
	<path class="st0" d="M658.7,34.5c-3.7-4.1-8.2-7.3-13.5-9.5c-5.3-2.2-11.3-3.3-17.9-3.3c-6.7,0-12.7,1.1-18,3.3
		c-5.3,2.2-9.9,5.4-13.6,9.5c-3.7,4.1-6.6,9.2-8.6,15.1c-2,5.9-3,12.6-3,20.1c0,7.5,1,14.2,3,20.1c2,5.9,4.9,11,8.6,15.1
		c3.7,4.1,8.3,7.3,13.6,9.5c5.3,2.2,11.3,3.3,18,3.3c6.7,0,12.6-1.1,17.9-3.3c5.3-2.2,9.8-5.4,13.5-9.5c3.7-4.1,6.5-9.1,8.5-15.1
		c2-5.9,3-12.6,3-20.1c0-7.5-1-14.2-3-20.1S662.4,38.7,658.7,34.5z"/>
	<path class="st1" d="M345.6,143.7c-7.3-17-14.1-33.1-20.8-49.4l0,0c-1.3-3.2-1.7-7.2-1-10.1c5-21.3,10.3-42.9,15.5-63.9l5-20.2
		h-1.9c-8.6,0-16.1,0-26.1,1c-13.1,1.3-25.7,5.5-37.9,9.6c-6.1,2.1-12.4,4.2-18.7,5.9c-2.7,0.7-6.5-0.5-9.2-1.4
		c-48.2-15.8-97.3-15.8-146,0.1c-2.6,0.9-6.5,2.2-9.2,1.4c-5.7-1.5-11.6-3.4-17.9-5.3C62.6,6.7,47.5,2,33.4,0.8C24.8,0,20,0,12.1,0
		h-1.9l0.4,1.8c2.6,11.7,5.6,23.5,8.5,35c3.5,14.1,7.2,28.7,10.2,43c1.4,6.9,1.5,12,0.1,15.5c-6.3,16.3-13.1,32.3-20.3,49.2
		c-2.8,6.5-5.6,13.1-8.4,19.9L0,166.2l1.8,0.3C63.7,177.8,109.4,216,146,251.9l1.2,1.2l4.6-5.7L115.4,201l10.4-7.7
		c10-7.5,20-14.9,29.9-22.5c4.2-3.2,6.5-6.7,6.7-10.5c0.2-3.6-1.4-7.2-4.8-10.6c-3.1-3.1-6.7-7.2-10.5-11.6
		c-11.5-13.3-24.6-28.3-34.7-28.3c-32.9,0-61.7,18.8-78.9,30c-3,1.9-5.6,3.6-7.8,5c2.1-5,4.1-9.9,6-14.7
		c12.4-31,23.1-57.7,52.8-77.2l1.7-1.1L72.3,40.4c-11.4-9.2-22.5-18-34.1-27.4c0.8,0.1,1.4,0.2,2.1,0.3C55.7,16.2,69.6,23.5,83,30.7
		c6.9,3.7,14.1,7.5,21.4,10.6c26,11.2,44.6,29.8,58.3,58.7c3.3,6.9,6.3,14.1,9.3,21c1.2,2.9,2.5,5.9,3.7,8.8l1.3,3l1.4-2.9
		c2.4-4.9,4.7-9.8,7-14.7c5.1-10.9,10-21.1,15.6-31.2c10.5-18.9,24.1-31.7,41.6-39c7.1-3,13.5-6.3,18.9-9.9
		c17.3-11.2,35.3-18.4,54.9-21.8c-8.7,7-17.2,13.9-25.8,20.9l-21.9,17.8l1.7,1.1c30.2,19.9,41.6,48,53.6,77.8
		c1.8,4.5,3.6,9,5.6,13.5c-0.8-0.5-1.6-1.1-2.5-1.7c-14.5-9.8-48.4-32.7-86.3-32.7c-0.2,0-0.4,0-0.6,0c-9.5,0-23.5,16.5-30.2,24.4
		c-0.8,0.9-1.5,1.8-2,2.4c-11.3,12.9-16.4,18.7-15.9,24.4c0.5,5.1,5.6,9.1,14.9,16.3c1.4,1.1,3,2.3,4.6,3.6
		c6.5,5.2,13.5,9.8,20.3,14.3c2.6,1.7,5.3,3.5,7.9,5.2l-36.7,46.6l4.6,5.8l1.2-1.2c34.1-33.8,81.4-74,144.1-85.5l1.8-0.3l-0.7-1.7
		C351.4,157.3,348.5,150.4,345.6,143.7z"/>
	<path class="st1" d="M184.9,220c-2.5,0.1-4.8,0.2-6.7-0.4l-0.4-0.1l-0.4,0.1c-2,0.6-4.4,0.5-6.9,0.4c-6-0.3-13.4-0.6-14.5,10.6
		c-0.5,5.4,1.5,11,5.5,15.4c4.3,4.7,10.3,7.4,16.2,7.4c0.1,0,0.1,0,0.2,0c5.6-0.1,11.2-2.6,15.4-7.1c4-4.3,6.2-9.8,5.9-15.2
		C198.5,219.5,191,219.8,184.9,220z"/>
	<path class="st1" d="M534.9,136.5c1.5,0.9,3.4,1.3,5.6,1.3h22.8l-34.1-50.3c-2.3-3.4-5.1-6-8.3-7.8c4.8-1.5,9-3.5,12.8-6
		c3.7-2.5,6.9-5.4,9.4-8.8c2.5-3.3,4.5-7,5.8-11.1c1.3-4.1,2-8.4,2-13c0-5.8-1-11.1-3-15.9c-2-4.8-5.1-8.9-9.3-12.4
		c-4.2-3.5-9.7-6.1-16.3-8.1c-6.6-1.9-14.6-2.9-23.9-2.9H457v136.2h25.3V84.6h10.8c2.5,0,4.4,0.3,5.7,1c1.3,0.7,2.5,1.9,3.5,3.5
		l28.6,43.6C532,134.4,533.4,135.6,534.9,136.5z M510.6,64.7c-3.5,1.2-7.7,1.8-12.5,1.8h-15.8V21.3h16.2c9.4,0,16.3,1.9,20.9,5.6
		c4.6,3.7,6.8,9,6.8,15.9c0,3.5-0.6,6.6-1.7,9.5c-1.1,2.9-2.8,5.4-5.1,7.5C517.1,61.8,514.1,63.5,510.6,64.7z"/>
	<path class="st1" d="M677.1,20c-6-6.2-13.3-11-21.8-14.5c-8.5-3.5-17.9-5.3-28.2-5.3c-10.3,0-19.7,1.7-28.2,5.2
		c-8.5,3.5-15.8,8.3-21.8,14.5c-6.1,6.2-10.8,13.6-14.1,22.1c-3.3,8.5-5,17.8-5,27.7s1.7,19.2,5,27.7c3.3,8.5,8,15.9,14.1,22.1
		c6.1,6.2,13.3,11.1,21.8,14.5c8.5,3.5,17.9,5.2,28.2,5.2c10.3,0,19.7-1.7,28.2-5.2s15.7-8.3,21.8-14.5c6-6.2,10.7-13.6,14-22.1
		c3.3-8.5,5-17.8,5-27.7s-1.7-19.2-5-27.7C687.8,33.5,683.2,26.2,677.1,20z M667.2,89.9c-2,5.9-4.8,11-8.5,15.1
		c-3.7,4.1-8.2,7.3-13.5,9.5c-5.3,2.2-11.3,3.3-17.9,3.3c-6.7,0-12.7-1.1-18-3.3c-5.3-2.2-9.9-5.4-13.6-9.5
		c-3.7-4.1-6.6-9.1-8.6-15.1c-2-5.9-3-12.6-3-20.1c0-7.5,1-14.2,3-20.1c2-5.9,4.9-11,8.6-15.1c3.7-4.1,8.3-7.3,13.6-9.5
		c5.3-2.2,11.3-3.3,18-3.3c6.7,0,12.6,1.1,17.9,3.3c5.3,2.2,9.8,5.4,13.5,9.5c3.7,4.1,6.5,9.2,8.5,15.1s3,12.6,3,20.1
		C670.2,77.2,669.2,83.9,667.2,89.9z"/>
	<path class="st1" d="M740.2,134.1c8.5,3.5,17.9,5.2,28.2,5.2c10.3,0,19.7-1.7,28.2-5.2c8.5-3.5,15.7-8.3,21.8-14.5
		c6-6.2,10.7-13.6,14-22.1c3.3-8.5,5-17.8,5-27.7s-1.7-19.2-5-27.7c-3.3-8.5-8-15.9-14-22c-6-6.2-13.3-11-21.8-14.5
		c-8.5-3.5-17.9-5.3-28.2-5.3c-10.3,0-19.7,1.7-28.2,5.2c-8.5,3.5-15.8,8.3-21.8,14.5c-6.1,6.2-10.8,13.6-14.1,22.1
		c-3.3,8.5-5,17.8-5,27.7s1.7,19.2,5,27.7c3.3,8.5,8,15.9,14.1,22.1C724.4,125.8,731.7,130.6,740.2,134.1z M728.2,49.6
		c2-5.9,4.9-11,8.6-15.1c3.7-4.1,8.3-7.3,13.6-9.5c5.3-2.2,11.3-3.3,18-3.3c6.7,0,12.6,1.1,17.9,3.3c5.3,2.2,9.8,5.4,13.5,9.5
		c3.7,4.1,6.5,9.2,8.5,15.1c2,5.9,3,12.6,3,20.1c0,7.5-1,14.2-3,20.1c-2,5.9-4.8,11-8.5,15.1c-3.7,4.1-8.2,7.3-13.5,9.5
		c-5.3,2.2-11.3,3.3-17.9,3.3c-6.7,0-12.7-1.1-18-3.3c-5.3-2.2-9.9-5.4-13.6-9.5c-3.7-4.1-6.6-9.1-8.6-15.1c-2-5.9-3-12.6-3-20.1
		C725.2,62.3,726.2,55.6,728.2,49.6z"/>
	<path class="st1" d="M973.4,44.5c-0.1,1.9-0.1,3.7-0.1,5.4v88h22.3V1.7h-19.1c-1.1,0-2.1,0-2.9,0.1c-0.8,0.1-1.6,0.2-2.2,0.5
		c-0.7,0.3-1.3,0.7-1.8,1.2c-0.5,0.6-1.1,1.3-1.6,2.3l-40.3,75.4c-1.1,2-2.1,4.1-3,6.3c-0.9,2.2-1.9,4.4-2.7,6.7
		c-0.9-2.2-1.8-4.4-2.7-6.5c-0.9-2.2-1.9-4.3-3-6.3L875.6,5.7c-0.5-0.9-1-1.7-1.6-2.3c-0.6-0.6-1.2-1-1.8-1.2
		c-0.7-0.3-1.4-0.4-2.2-0.5c-0.8-0.1-1.8-0.1-2.9-0.1h-19.1v136.2h22.3v-88c0-1.7,0-3.5-0.1-5.5c-0.1-2-0.3-4-0.5-6.1l41.7,77.5
		c0.9,1.8,2.2,3.1,3.7,4.1c1.5,1,3.3,1.5,5.3,1.5h3.5c2,0,3.8-0.5,5.3-1.5c1.5-1,2.7-2.3,3.7-4.1l41.2-77.2
		C973.6,40.6,973.4,42.6,973.4,44.5z"/>
	<path class="st1" d="M1227.7,137.8h19.6L1193.8,1.7h-25.9l-51.1,130.2l-30-44.3c-2.3-3.4-5.1-6-8.3-7.8c4.8-1.5,9-3.5,12.8-6
		c3.7-2.5,6.9-5.4,9.4-8.8c2.5-3.3,4.5-7,5.8-11.1c1.4-4.1,2-8.4,2-13c0-5.8-1-11.1-3-15.9c-2-4.8-5.1-8.9-9.3-12.4
		c-4.2-3.5-9.7-6.1-16.3-8.1c-6.6-1.9-14.6-2.9-23.9-2.9h-41.5v136.2h25.3V84.6h10.8c2.5,0,4.4,0.3,5.7,1c1.3,0.7,2.5,1.9,3.5,3.5
		l28.6,43.6c1.1,1.6,2.4,2.9,3.9,3.8c1.5,0.9,3.4,1.3,5.6,1.3h16.4h6.4h13.3c2.1,0,3.9-0.6,5.4-1.8c1.5-1.2,2.5-2.5,3-4l10.2-27.8
		h56.4l10.2,27.8c0.6,1.6,1.6,3,3.1,4.1C1223.7,137.3,1225.5,137.8,1227.7,137.8z M1068.1,64.7c-3.5,1.2-7.7,1.8-12.5,1.8h-15.8
		V21.3h16.2c9.4,0,16.3,1.9,20.9,5.6c4.6,3.7,6.8,9,6.8,15.9c0,3.5-0.6,6.6-1.7,9.5c-1.1,2.9-2.8,5.4-5.1,7.5
		C1074.6,61.8,1071.6,63.5,1068.1,64.7z M1159.1,86.4l16.6-45.1c0.8-2.1,1.6-4.5,2.5-7.3c0.8-2.8,1.7-5.7,2.6-8.9
		c0.9,3.2,1.8,6.2,2.7,8.9c0.9,2.7,1.7,5.1,2.5,7.1l16.6,45.3H1159.1z"/>
	<path class="st1" d="M1344.2,107.3c-1-1.1-2.2-1.6-3.6-1.6c-0.8,0-1.6,0.2-2.3,0.5c-0.7,0.3-1.4,0.8-2,1.4
		c-2.1,1.9-4.2,3.5-6.3,4.8c-2.1,1.3-4.3,2.3-6.7,3.2c-2.4,0.8-4.9,1.4-7.7,1.8c-2.8,0.4-5.9,0.6-9.4,0.6c-5.8,0-11.2-1.1-16.2-3.2
		c-5-2.2-9.4-5.3-13.1-9.4c-3.7-4.1-6.6-9.1-8.8-15.1c-2.2-6-3.2-12.8-3.2-20.4c0-7.4,1.1-14.1,3.2-20c2.2-5.9,5.2-11,9-15.1
		c3.9-4.1,8.5-7.3,13.8-9.6c5.4-2.2,11.3-3.3,17.7-3.3c5.5,0,10,0.6,13.5,1.7c3.5,1.1,6.5,2.4,8.8,3.7c2.3,1.3,4.2,2.5,5.7,3.7
		c1.5,1.1,3,1.7,4.4,1.7c1.4,0,2.5-0.3,3.2-0.8c0.8-0.6,1.4-1.2,1.9-2l8.5-11.8c-5.4-5.3-11.9-9.6-19.4-12.9
		c-7.6-3.2-16.4-4.8-26.5-4.8c-10.4,0-19.8,1.7-28.4,5.1c-8.6,3.4-15.9,8.2-22.1,14.4c-6.2,6.2-10.9,13.5-14.3,22
		c-3.4,8.5-5.1,17.9-5.1,28.1c0,10.1,1.5,19.4,4.6,28c3,8.5,7.4,15.9,13.1,22c5.7,6.2,12.6,11,20.7,14.4c8.1,3.5,17.2,5.2,27.3,5.2
		c11.3,0,21-1.8,29.1-5.5c8.1-3.6,14.9-8.9,20.4-15.7L1344.2,107.3z"/>
	<path class="st1" d="M1471.1,118.2l-10-10.8c-1-1.1-2.2-1.6-3.6-1.6c-0.8,0-1.6,0.2-2.3,0.5c-0.7,0.3-1.4,0.8-2,1.4
		c-2.1,1.9-4.2,3.5-6.3,4.8c-2.1,1.3-4.3,2.3-6.7,3.2c-2.4,0.8-4.9,1.4-7.7,1.8c-2.8,0.4-5.9,0.6-9.4,0.6c-5.8,0-11.2-1.1-16.2-3.2
		c-5-2.2-9.4-5.3-13.1-9.4c-3.7-4.1-6.6-9.1-8.8-15.1c-2.2-6-3.2-12.8-3.2-20.4c0-7.4,1.1-14.1,3.2-20c2.2-5.9,5.2-11,9-15.1
		c3.9-4.1,8.5-7.3,13.8-9.6c5.4-2.2,11.3-3.3,17.7-3.3c5.5,0,10,0.6,13.5,1.7c3.5,1.1,6.5,2.4,8.8,3.7c2.3,1.3,4.2,2.5,5.7,3.7
		c1.5,1.1,3,1.7,4.4,1.7c1.4,0,2.5-0.3,3.2-0.8c0.8-0.6,1.4-1.2,1.9-2l8.5-11.8c-5.4-5.3-11.9-9.6-19.4-12.9
		c-7.6-3.2-16.4-4.8-26.5-4.8c-10.4,0-19.8,1.7-28.4,5.1c-8.6,3.4-15.9,8.2-22.1,14.4c-6.2,6.2-10.9,13.5-14.3,22
		c-3.4,8.5-5.1,17.9-5.1,28.1c0,10.1,1.5,19.4,4.6,28c3,8.5,7.4,15.9,13.1,22c5.7,6.2,12.6,11,20.7,14.4c8.1,3.5,17.2,5.2,27.3,5.2
		c11.3,0,21-1.8,29.1-5.5C1458.8,130.2,1465.6,125,1471.1,118.2z"/>
	<path class="st1" d="M1592.4,20c-6-6.2-13.3-11-21.8-14.5c-8.5-3.5-17.9-5.3-28.2-5.3c-10.3,0-19.7,1.7-28.2,5.2
		c-8.5,3.5-15.8,8.3-21.8,14.5c-6.1,6.2-10.8,13.6-14.1,22.1c-3.3,8.5-5,17.8-5,27.7s1.7,19.2,5,27.7c3.3,8.5,8,15.9,14.1,22.1
		c6.1,6.2,13.3,11.1,21.8,14.5c8.5,3.5,17.9,5.2,28.2,5.2c10.3,0,19.7-1.7,28.2-5.2c8.5-3.5,15.7-8.3,21.8-14.5
		c6-6.2,10.7-13.6,14-22.1c3.3-8.5,5-17.8,5-27.7s-1.7-19.2-5-27.7C1603.1,33.5,1598.4,26.2,1592.4,20z M1582.4,89.9
		c-2,5.9-4.8,11-8.5,15.1c-3.7,4.1-8.2,7.3-13.5,9.5c-5.3,2.2-11.3,3.3-17.9,3.3c-6.7,0-12.7-1.1-18-3.3c-5.3-2.2-9.9-5.4-13.6-9.5
		c-3.7-4.1-6.6-9.1-8.6-15.1c-2-5.9-3-12.6-3-20.1c0-7.5,1-14.2,3-20.1c2-5.9,4.9-11,8.6-15.1c3.7-4.1,8.3-7.3,13.6-9.5
		c5.3-2.2,11.3-3.3,18-3.3c6.7,0,12.6,1.1,17.9,3.3c5.3,2.2,9.8,5.4,13.5,9.5c3.7,4.1,6.5,9.2,8.5,15.1s3,12.6,3,20.1
		C1585.4,77.2,1584.4,83.9,1582.4,89.9z"/>
	<path class="st1" d="M1733.5,20c-6-6.2-13.3-11-21.8-14.5c-8.5-3.5-17.9-5.3-28.2-5.3c-10.3,0-19.7,1.7-28.2,5.2
		c-8.5,3.5-15.8,8.3-21.8,14.5c-6.1,6.2-10.8,13.6-14.1,22.1c-3.3,8.5-5,17.8-5,27.7s1.7,19.2,5,27.7c3.3,8.5,8,15.9,14.1,22.1
		c6.1,6.2,13.3,11.1,21.8,14.5c8.5,3.5,17.9,5.2,28.2,5.2c10.3,0,19.7-1.7,28.2-5.2c8.5-3.5,15.7-8.3,21.8-14.5
		c6-6.2,10.7-13.6,14-22.1c3.3-8.5,5-17.8,5-27.7s-1.7-19.2-5-27.7C1744.2,33.5,1739.6,26.2,1733.5,20z M1723.6,89.9
		c-2,5.9-4.8,11-8.5,15.1c-3.7,4.1-8.2,7.3-13.5,9.5c-5.3,2.2-11.3,3.3-17.9,3.3c-6.7,0-12.7-1.1-18-3.3c-5.3-2.2-9.9-5.4-13.6-9.5
		c-3.7-4.1-6.6-9.1-8.6-15.1c-2-5.9-3-12.6-3-20.1c0-7.5,1-14.2,3-20.1c2-5.9,4.9-11,8.6-15.1c3.7-4.1,8.3-7.3,13.6-9.5
		c5.3-2.2,11.3-3.3,18-3.3c6.7,0,12.6,1.1,17.9,3.3c5.3,2.2,9.8,5.4,13.5,9.5c3.7,4.1,6.5,9.2,8.5,15.1c2,5.9,3,12.6,3,20.1
		C1726.6,77.2,1725.6,83.9,1723.6,89.9z"/>
	<path class="st1" d="M1855.7,1.7v82.8c0,1.8,0,3.8,0.1,5.9c0.1,2.1,0.3,4.3,0.5,6.5l-71.5-91.1c-0.7-0.9-1.3-1.6-1.9-2.1
		c-0.6-0.5-1.1-0.9-1.7-1.2c-0.6-0.3-1.3-0.5-2-0.6c-0.8-0.1-1.7-0.1-2.8-0.1h-13.3v136.2h22.3V54.2c0-1.6,0-3.4-0.1-5.4
		c-0.1-2-0.2-4-0.4-6l71.2,90.7c1.3,1.6,2.5,2.8,3.9,3.4c1.3,0.6,3,0.9,5,0.9h13.1V1.7H1855.7z"/>
	<path class="st1" d="M490,238.3c-0.7,0-1.4,0.2-2,0.7c-0.6,0.5-1.3,1-2,1.5c-0.8,0.5-1.8,1.1-2.9,1.5c-1.1,0.5-2.6,0.7-4.5,0.7
		c-1.9,0-3.5-0.4-5-1.1c-1.5-0.7-2.7-1.7-3.8-3.1c-1-1.4-1.8-3.1-2.4-5.1c-0.5-2-0.8-4.3-0.8-6.9c0-2.5,0.3-4.7,0.8-6.7
		c0.5-2,1.3-3.6,2.3-5c1-1.4,2.3-2.4,3.8-3.2c1.5-0.7,3.3-1.1,5.4-1.1c1.6,0,2.9,0.2,4,0.5c1.1,0.4,2,0.8,2.8,1.2
		c0.8,0.5,1.5,0.9,2,1.2c0.6,0.4,1.1,0.5,1.7,0.5c0.6,0,1.1-0.1,1.4-0.4c0.3-0.3,0.7-0.6,1-1l3.1-4.2c-2.2-2.2-4.6-3.8-7.3-5
		c-2.7-1.2-5.9-1.7-9.5-1.7c-3.8,0-7.2,0.6-10.1,1.9c-2.9,1.3-5.4,3-7.3,5.2c-2,2.2-3.5,4.8-4.5,7.9s-1.5,6.3-1.5,9.9
		c0,4,0.6,7.5,1.7,10.6c1.1,3.1,2.7,5.7,4.7,7.8c2,2.1,4.3,3.8,6.9,4.9c2.6,1.1,5.4,1.7,8.4,1.7c1.7,0,3.4-0.1,5.1-0.4
		c1.7-0.3,3.4-0.7,5-1.3c1.6-0.6,3.2-1.4,4.7-2.4c1.5-1,2.9-2.3,4.2-3.8l-3.3-4.2C491.7,238.7,491,238.3,490,238.3z"/>
	<rect x="503.7" y="180.9" class="st1" width="11.6" height="70"/>
	<path class="st1" d="M566.4,208.5c-2.1-2.1-4.6-3.8-7.5-4.9c-2.9-1.2-6.2-1.7-9.8-1.7c-3.6,0-6.9,0.6-9.8,1.7
		c-3,1.2-5.5,2.8-7.6,4.9c-2.1,2.1-3.7,4.7-4.8,7.8c-1.1,3.1-1.7,6.5-1.7,10.3c0,3.8,0.6,7.3,1.7,10.4c1.1,3.1,2.8,5.7,4.8,7.9
		c2.1,2.2,4.6,3.8,7.6,5c2.9,1.2,6.2,1.7,9.8,1.7c3.6,0,6.9-0.6,9.8-1.7c2.9-1.2,5.4-2.8,7.5-5c2.1-2.2,3.7-4.8,4.8-7.9
		c1.1-3.1,1.7-6.5,1.7-10.4c0-3.8-0.6-7.2-1.7-10.3C570.1,213.2,568.5,210.6,566.4,208.5z M558,238.6c-1.9,2.7-4.9,4.1-8.9,4.1
		c-4.1,0-7.1-1.4-9-4.1c-1.9-2.7-2.9-6.7-2.9-11.8c0-5.2,1-9.1,2.9-11.9c1.9-2.7,5-4.1,9-4.1c4,0,7,1.4,8.9,4.1
		c1.9,2.7,2.9,6.7,2.9,11.9C560.9,231.9,559.9,235.9,558,238.6z"/>
	<path class="st1" d="M611.4,237.5c-1.6,1.6-3.2,2.8-5,3.7c-1.8,0.9-3.6,1.3-5.7,1.3c-2.7,0-4.8-0.8-6.1-2.4c-1.4-1.6-2-3.9-2-6.9
		v-30.7H581v30.7c0,2.7,0.4,5.2,1.1,7.4c0.7,2.2,1.7,4.2,3.1,5.8c1.4,1.6,3.1,2.9,5.1,3.8c2,0.9,4.4,1.3,7,1.3
		c1.6,0,3.1-0.2,4.5-0.5c1.4-0.3,2.7-0.8,3.9-1.4c1.2-0.6,2.3-1.3,3.4-2.1c1.1-0.8,2.1-1.8,3.1-2.8l0.8,3.9c0.5,1.4,1.5,2.1,3,2.1
		h7.1v-48.3h-11.6V237.5z"/>
	<path class="st1" d="M665,206.4c-1.5-1.4-3.2-2.6-5.1-3.5c-1.9-0.9-4.2-1.3-6.9-1.3c-3.2,0-6,0.6-8.6,1.9c-2.5,1.3-4.7,3-6.5,5.3
		c-1.8,2.3-3.2,4.9-4.2,8c-1,3.1-1.5,6.4-1.5,10c0,4,0.4,7.5,1.3,10.5c0.9,3.1,2.1,5.7,3.7,7.7c1.6,2.1,3.5,3.7,5.7,4.8
		c2.2,1.1,4.6,1.6,7.3,1.6c1.7,0,3.3-0.2,4.7-0.5c1.5-0.4,2.8-0.9,4.1-1.5c1.3-0.7,2.5-1.4,3.6-2.4c1.1-0.9,2.1-1.9,3.2-3.1l0.9,4.7
		c0.5,1.4,1.5,2.1,3,2.1h7.1v-70H665V206.4z M665,236.5c-1.5,1.9-3.1,3.3-4.8,4.3c-1.7,1-3.8,1.5-6.2,1.5c-1.5,0-2.9-0.3-4.1-0.8
		c-1.2-0.5-2.3-1.4-3.1-2.7c-0.8-1.2-1.5-2.8-2-4.8c-0.5-2-0.7-4.4-0.7-7.2c0-2.8,0.3-5.2,0.8-7.3c0.5-2.1,1.3-3.8,2.3-5.1
		c1-1.3,2.2-2.3,3.6-3s3-1,4.8-1c1.8,0,3.5,0.3,5,1c1.6,0.7,3,1.8,4.3,3.4V236.5z"/>
	<path class="st1" d="M745.3,206.9c-1.4-1.6-3.1-2.9-5.1-3.8c-2-0.9-4.4-1.3-7-1.3c-3,0-5.7,0.6-8,1.6c-2.3,1.1-4.3,2.5-6.2,4.3
		v-26.9h-11.6v70H719v-34.9c1.6-1.6,3.2-2.8,5-3.7c1.8-0.9,3.6-1.4,5.7-1.4c2.7,0,4.8,0.8,6.1,2.4c1.4,1.6,2,3.9,2,6.9v30.7h11.6
		v-30.7c0-2.7-0.4-5.2-1.1-7.4C747.7,210.4,746.7,208.5,745.3,206.9z"/>
	<path class="st1" d="M798.8,208.5c-2.1-2.1-4.6-3.8-7.5-4.9c-2.9-1.2-6.2-1.7-9.8-1.7s-6.9,0.6-9.8,1.7c-3,1.2-5.5,2.8-7.6,4.9
		c-2.1,2.1-3.7,4.7-4.9,7.8c-1.1,3.1-1.7,6.5-1.7,10.3c0,3.8,0.6,7.3,1.7,10.4c1.1,3.1,2.8,5.7,4.9,7.9c2.1,2.2,4.6,3.8,7.6,5
		c2.9,1.2,6.2,1.7,9.8,1.7s6.9-0.6,9.8-1.7c2.9-1.2,5.4-2.8,7.5-5c2.1-2.2,3.7-4.8,4.8-7.9c1.1-3.1,1.7-6.5,1.7-10.4
		c0-3.8-0.6-7.2-1.7-10.3C802.5,213.2,800.9,210.6,798.8,208.5z M790.4,238.6c-1.9,2.7-4.9,4.1-8.9,4.1c-4.1,0-7.1-1.4-9-4.1
		c-1.9-2.7-2.9-6.7-2.9-11.8c0-5.2,1-9.1,2.9-11.9c1.9-2.7,5-4.1,9-4.1c4,0,7,1.4,8.9,4.1c1.9,2.7,2.9,6.7,2.9,11.9
		C793.3,231.9,792.4,235.9,790.4,238.6z"/>
	<path class="st1" d="M838.8,240.9c-0.2-0.2-0.5-0.3-0.8-0.3c-0.3,0-0.6,0.1-0.8,0.3c-0.3,0.2-0.6,0.4-1,0.5
		c-0.4,0.2-0.8,0.4-1.3,0.5c-0.5,0.2-1.1,0.3-1.8,0.3c-1.3,0-2.3-0.4-3-1.3c-0.8-0.8-1.1-2-1.1-3.5v-26.2h12.7V203h-12.7v-15.2h-6
		c-0.7,0-1.3,0.2-1.7,0.5c-0.5,0.3-0.7,0.8-0.9,1.5l-2.4,13.2l-7.8,1.3v4.6c0,0.8,0.2,1.4,0.7,1.8c0.5,0.4,1,0.6,1.6,0.6h4.9v27
		c0,4.2,1.1,7.4,3.4,9.8c2.3,2.4,5.5,3.6,9.7,3.6c2.4,0,4.6-0.4,6.8-1.1c2.2-0.7,4.1-1.8,5.8-3.2l-3.5-5.7
		C839.2,241.3,839,241.1,838.8,240.9z"/>
	<path class="st1" d="M885.9,207.5c-1.9-1.9-4.1-3.3-6.6-4.3c-2.6-1-5.4-1.5-8.4-1.5c-3.6,0-6.9,0.6-9.7,1.9c-2.9,1.3-5.3,3-7.3,5.1
		c-2,2.2-3.5,4.7-4.6,7.6c-1.1,2.9-1.6,6-1.6,9.3c0,4.2,0.6,8,1.8,11.2c1.2,3.2,2.9,5.9,5,8.1c2.1,2.2,4.6,3.8,7.5,4.9
		c2.9,1.1,6,1.7,9.4,1.7c1.7,0,3.4-0.1,5.2-0.4c1.8-0.3,3.6-0.7,5.3-1.3c1.7-0.6,3.4-1.4,5-2.4c1.6-1,3-2.3,4.3-3.8l-3.4-4.2
		c-0.3-0.3-0.6-0.6-0.9-0.8c-0.3-0.2-0.8-0.3-1.2-0.3c-0.7,0-1.5,0.2-2.2,0.7c-0.8,0.4-1.7,0.9-2.7,1.5c-1,0.5-2.2,1-3.6,1.5
		c-1.4,0.4-3,0.7-4.9,0.7c-3.8,0-6.9-1.2-9.2-3.5c-2.3-2.3-3.7-6-4-10.9h29.9c0.5,0,1-0.1,1.3-0.2c0.3-0.1,0.6-0.4,0.8-0.7
		c0.2-0.3,0.3-0.8,0.4-1.4c0.1-0.6,0.1-1.3,0.1-2.2c0-3.5-0.5-6.6-1.6-9.3C889.2,211.7,887.7,209.4,885.9,207.5z M859.4,221.1
		c0.5-3.5,1.8-6.2,3.7-8.1c1.9-1.9,4.6-2.9,8-2.9c1.7,0,3.2,0.3,4.5,0.9c1.3,0.6,2.4,1.4,3.2,2.4c0.8,1,1.5,2.2,1.9,3.5
		c0.4,1.3,0.6,2.8,0.6,4.3H859.4z"/>
	<rect x="902" y="180.9" class="st1" width="11.6" height="70"/>
	<path class="st1" d="M1008.4,206.6c-1.4-1.6-3.2-2.8-5.2-3.6c-2.1-0.8-4.4-1.2-7.1-1.2c-1.5,0-3.1,0.2-4.6,0.5
		c-1.5,0.3-3,0.9-4.3,1.6c-1.3,0.7-2.6,1.7-3.7,2.8c-1.1,1.1-2.1,2.5-2.8,4.1c-1-2.7-2.4-4.9-4.4-6.6c-2-1.6-4.5-2.5-7.5-2.5
		c-1.4,0-2.8,0.2-4,0.5c-1.2,0.3-2.3,0.8-3.4,1.3c-1.1,0.6-2,1.2-3,2c-0.9,0.8-1.8,1.6-2.7,2.6l-0.8-3.6c-0.5-1.4-1.5-2.1-3-2.1
		h-7.1v48.3h11.6v-35.4c1.3-1.4,2.6-2.6,4.1-3.4c1.5-0.8,3-1.2,4.7-1.2c2.5,0,4.5,0.7,5.8,2.2c1.3,1.5,2,3.8,2,7.1v30.7h11.7v-30.7
		c0-1.5,0.2-2.8,0.7-4c0.4-1.2,1-2.1,1.8-2.9c0.8-0.8,1.7-1.4,2.7-1.8c1-0.4,2.1-0.6,3.3-0.6c2.6,0,4.6,0.8,5.9,2.3
		c1.3,1.6,2,3.9,2,6.9v30.7h11.6v-30.7c0-2.9-0.4-5.5-1.1-7.8S1009.8,208.2,1008.4,206.6z"/>
	<path class="st1" d="M1057.3,206.9c-1.5-1.6-3.4-2.9-5.6-3.9c-2.2-0.9-4.7-1.4-7.6-1.4c-7.8,0-14.6,2.5-20.1,7.6l2.1,3.7
		c0.3,0.6,0.8,1.1,1.4,1.5c0.6,0.4,1.2,0.6,2,0.6c0.9,0,1.8-0.2,2.6-0.7c0.8-0.4,1.6-0.9,2.6-1.5c0.9-0.5,2-1,3.3-1.5
		c1.3-0.4,2.8-0.7,4.7-0.7c2.6,0,4.6,0.8,6,2.3c1.4,1.6,2,4,2,7.2v2.8c-5.5,0-10.1,0.5-13.8,1.4c-3.7,0.9-6.7,2.1-8.9,3.6
		c-2.2,1.4-3.8,3-4.8,4.8c-1,1.8-1.4,3.6-1.4,5.4c0,2.2,0.3,4.1,1,5.7c0.7,1.6,1.7,3,2.9,4.1c1.2,1.1,2.7,1.9,4.4,2.5
		c1.7,0.6,3.6,0.8,5.6,0.8c1.7,0,3.3-0.1,4.7-0.4c1.4-0.3,2.7-0.7,4-1.3c1.3-0.6,2.5-1.3,3.6-2.1c1.2-0.8,2.4-1.8,3.6-2.9l1,3.4
		c0.3,1,0.8,1.7,1.4,2c0.6,0.3,1.5,0.5,2.6,0.5h5.2v-30.5c0-2.7-0.4-5.2-1.2-7.5C1060.1,210.5,1058.9,208.5,1057.3,206.9z
		 M1050.7,238.5c-0.8,0.9-1.7,1.6-2.5,2.2c-0.8,0.6-1.7,1.2-2.6,1.6c-0.9,0.4-1.8,0.8-2.8,1c-1,0.2-2.1,0.3-3.3,0.3
		c-1.9,0-3.5-0.4-4.7-1.3c-1.2-0.9-1.8-2.4-1.8-4.4c0-1,0.3-2,0.9-2.9c0.6-0.9,1.6-1.7,2.9-2.3c1.4-0.7,3.2-1.2,5.5-1.6
		c2.3-0.4,5.1-0.6,8.5-0.6V238.5z"/>
	<path class="st1" d="M1111.4,206.9c-1.4-1.6-3.1-2.9-5.1-3.8c-2-0.9-4.4-1.3-7-1.3c-1.6,0-3.1,0.2-4.5,0.5
		c-1.4,0.3-2.7,0.8-3.9,1.4c-1.2,0.6-2.4,1.3-3.4,2.1c-1.1,0.8-2.1,1.7-3.1,2.7l-0.8-3.8c-0.5-1.4-1.5-2.1-3-2.1h-7.1v48.3h11.6
		v-34.9c1.6-1.6,3.2-2.8,5-3.7c1.8-0.9,3.6-1.4,5.7-1.4c2.7,0,4.8,0.8,6.1,2.4c1.4,1.6,2,3.9,2,6.9v30.7h11.6v-30.7
		c0-2.7-0.4-5.2-1.1-7.4C1113.8,210.4,1112.8,208.5,1111.4,206.9z"/>
	<path class="st1" d="M1160.2,206.9c-1.5-1.6-3.4-2.9-5.6-3.9c-2.2-0.9-4.7-1.4-7.6-1.4c-7.8,0-14.5,2.5-20.1,7.6l2.1,3.7
		c0.3,0.6,0.8,1.1,1.4,1.5c0.6,0.4,1.2,0.6,2,0.6c0.9,0,1.8-0.2,2.6-0.7c0.8-0.4,1.6-0.9,2.6-1.5c0.9-0.5,2-1,3.3-1.5
		c1.3-0.4,2.8-0.7,4.7-0.7c2.6,0,4.6,0.8,6,2.3c1.4,1.6,2,4,2,7.2v2.8c-5.5,0-10.1,0.5-13.8,1.4c-3.7,0.9-6.7,2.1-8.9,3.6
		c-2.2,1.4-3.8,3-4.8,4.8c-1,1.8-1.4,3.6-1.4,5.4c0,2.2,0.3,4.1,1,5.7c0.7,1.6,1.7,3,2.9,4.1c1.2,1.1,2.7,1.9,4.4,2.5
		c1.7,0.6,3.6,0.8,5.6,0.8c1.7,0,3.3-0.1,4.7-0.4c1.4-0.3,2.7-0.7,4-1.3c1.3-0.6,2.5-1.3,3.6-2.1c1.2-0.8,2.4-1.8,3.6-2.9l1,3.4
		c0.3,1,0.8,1.7,1.4,2c0.6,0.3,1.5,0.5,2.6,0.5h5.2v-30.5c0-2.7-0.4-5.2-1.2-7.5C1162.9,210.5,1161.7,208.5,1160.2,206.9z
		 M1153.5,238.5c-0.8,0.9-1.7,1.6-2.5,2.2c-0.8,0.6-1.7,1.2-2.6,1.6c-0.9,0.4-1.8,0.8-2.8,1c-1,0.2-2.1,0.3-3.3,0.3
		c-1.9,0-3.5-0.4-4.7-1.3c-1.2-0.9-1.8-2.4-1.8-4.4c0-1,0.3-2,0.9-2.9c0.6-0.9,1.6-1.7,2.9-2.3c1.4-0.7,3.2-1.2,5.5-1.6
		c2.3-0.4,5.1-0.6,8.5-0.6V238.5z"/>
	<path class="st1" d="M1198.9,202.3c-1.8-0.4-3.8-0.6-5.8-0.6c-2.8,0-5.3,0.4-7.7,1.1c-2.3,0.7-4.4,1.8-6.1,3.1c-1.7,1.4-3,3-4,4.9
		c-1,1.9-1.4,4.1-1.4,6.5c0,2.9,0.7,5.5,2.1,7.7c1.4,2.2,3.3,4,5.8,5.3c-1.1,0.5-2,1.1-2.8,1.8c-0.8,0.7-1.4,1.4-2,2.1
		c-0.5,0.8-0.9,1.5-1.2,2.3c-0.3,0.8-0.4,1.5-0.4,2.2c0,1.8,0.4,3.2,1.1,4.3c0.7,1.1,1.7,2,2.9,2.6c-2.4,0.9-4.4,2.1-5.7,3.7
		c-1.4,1.5-2.1,3.4-2.1,5.7c0,1.7,0.4,3.3,1.3,4.8c0.9,1.5,2.2,2.9,4,4.1c1.8,1.2,4,2.1,6.7,2.8c2.7,0.7,5.9,1.1,9.6,1.1
		c3.7,0,7-0.5,9.9-1.4c2.9-1,5.3-2.2,7.3-3.8c2-1.6,3.5-3.4,4.6-5.4c1.1-2,1.6-4.1,1.6-6.2c0-2.3-0.4-4.2-1.3-5.6
		c-0.9-1.5-2.1-2.6-3.5-3.5c-1.5-0.9-3.1-1.5-5-1.9c-1.9-0.4-3.8-0.7-5.7-0.8c-1.9-0.2-3.8-0.2-5.7-0.2c-1.9,0-3.5-0.1-5-0.3
		c-1.5-0.2-2.6-0.5-3.5-1c-0.9-0.5-1.3-1.2-1.3-2.2c0-1.1,0.8-2.2,2.3-3.1c1.7,0.3,3.5,0.5,5.3,0.5c2.7,0,5.2-0.4,7.5-1.1
		c2.3-0.7,4.3-1.8,6-3.1c1.7-1.3,3-3,4-4.9c1-1.9,1.4-4.1,1.4-6.5c0-1-0.1-2-0.3-2.9c-0.2-0.9-0.4-1.8-0.7-2.6l4.3-0.8
		c0.9-0.2,1.6-0.4,1.9-0.8c0.4-0.4,0.6-1,0.6-1.7v-4.3h-13.9C1202.4,203.4,1200.7,202.7,1198.9,202.3z M1186.1,247.6
		c1.4,0.3,2.9,0.5,4.5,0.5s3.1,0,4.5,0c1.5,0,2.8,0.1,4.1,0.2c1.3,0.2,2.4,0.4,3.4,0.7c1,0.3,1.7,0.8,2.3,1.4
		c0.6,0.6,0.8,1.4,0.8,2.4c0,1-0.2,1.9-0.7,2.7c-0.5,0.8-1.2,1.5-2.2,2.1c-1,0.6-2.3,1.1-3.9,1.4c-1.6,0.3-3.4,0.5-5.6,0.5
		c-2.1,0-3.9-0.2-5.4-0.4c-1.5-0.3-2.7-0.7-3.6-1.2s-1.6-1.2-2-1.9s-0.6-1.5-0.6-2.4c0-1.3,0.4-2.4,1.2-3.4
		C1183.7,249.2,1184.8,248.3,1186.1,247.6z M1201.1,220.8c-0.4,1-0.9,1.8-1.6,2.5c-0.7,0.7-1.6,1.2-2.7,1.6
		c-1.1,0.4-2.3,0.6-3.8,0.6c-1.4,0-2.7-0.2-3.7-0.6c-1.1-0.4-2-0.9-2.7-1.6c-0.7-0.7-1.2-1.5-1.6-2.5c-0.4-1-0.5-2-0.5-3.2
		c0-2.4,0.7-4.3,2.1-5.7c1.4-1.4,3.6-2.1,6.4-2.1c2.9,0,5,0.7,6.4,2.1c1.4,1.4,2.1,3.3,2.1,5.7
		C1201.6,218.8,1201.4,219.8,1201.1,220.8z"/>
	<path class="st1" d="M1260,207.5c-1.9-1.9-4.1-3.3-6.6-4.3c-2.6-1-5.4-1.5-8.4-1.5c-3.6,0-6.9,0.6-9.7,1.9c-2.9,1.3-5.3,3-7.3,5.1
		c-2,2.2-3.5,4.7-4.6,7.6c-1.1,2.9-1.6,6-1.6,9.3c0,4.2,0.6,8,1.8,11.2c1.2,3.2,2.9,5.9,5,8.1c2.1,2.2,4.6,3.8,7.5,4.9
		c2.9,1.1,6,1.7,9.4,1.7c1.7,0,3.4-0.1,5.2-0.4c1.8-0.3,3.6-0.7,5.3-1.3c1.7-0.6,3.4-1.4,5-2.4c1.6-1,3-2.3,4.3-3.8l-3.4-4.2
		c-0.3-0.3-0.5-0.6-0.9-0.8c-0.3-0.2-0.8-0.3-1.2-0.3c-0.7,0-1.5,0.2-2.2,0.7c-0.8,0.4-1.7,0.9-2.7,1.5c-1,0.5-2.2,1-3.6,1.5
		c-1.4,0.4-3,0.7-4.9,0.7c-3.8,0-6.9-1.2-9.2-3.5c-2.3-2.3-3.7-6-4-10.9h29.9c0.5,0,1-0.1,1.3-0.2c0.3-0.1,0.6-0.4,0.8-0.7
		c0.2-0.3,0.3-0.8,0.4-1.4c0.1-0.6,0.1-1.3,0.1-2.2c0-3.5-0.5-6.6-1.6-9.3C1263.3,211.7,1261.9,209.4,1260,207.5z M1233.6,221.1
		c0.5-3.5,1.8-6.2,3.7-8.1c1.9-1.9,4.6-2.9,8-2.9c1.7,0,3.2,0.3,4.5,0.9c1.3,0.6,2.4,1.4,3.2,2.4c0.8,1,1.5,2.2,1.9,3.5
		c0.4,1.3,0.6,2.8,0.6,4.3H1233.6z"/>
	<path class="st1" d="M1338.9,206.6c-1.4-1.6-3.2-2.8-5.2-3.6c-2.1-0.8-4.4-1.2-7.1-1.2c-1.5,0-3.1,0.2-4.6,0.5
		c-1.5,0.3-3,0.9-4.3,1.6c-1.3,0.7-2.6,1.7-3.7,2.8c-1.1,1.1-2.1,2.5-2.8,4.1c-1-2.7-2.4-4.9-4.4-6.6c-2-1.6-4.5-2.5-7.5-2.5
		c-1.4,0-2.8,0.2-4,0.5c-1.2,0.3-2.3,0.8-3.4,1.3c-1.1,0.6-2,1.2-3,2c-0.9,0.8-1.8,1.6-2.7,2.6l-0.8-3.6c-0.5-1.4-1.5-2.1-3-2.1
		h-7.1v48.3h11.6v-35.4c1.3-1.4,2.6-2.6,4.1-3.4c1.5-0.8,3-1.2,4.7-1.2c2.5,0,4.5,0.7,5.8,2.2c1.3,1.5,2,3.8,2,7.1v30.7h11.7v-30.7
		c0-1.5,0.2-2.8,0.7-4c0.4-1.2,1-2.1,1.8-2.9c0.8-0.8,1.7-1.4,2.7-1.8c1-0.4,2.1-0.6,3.3-0.6c2.6,0,4.6,0.8,5.9,2.3
		c1.3,1.6,2,3.9,2,6.9v30.7h11.6v-30.7c0-2.9-0.4-5.5-1.1-7.8S1340.3,208.2,1338.9,206.6z"/>
	<path class="st1" d="M1389.7,207.5c-1.9-1.9-4.1-3.3-6.6-4.3c-2.6-1-5.4-1.5-8.4-1.5c-3.6,0-6.9,0.6-9.7,1.9
		c-2.9,1.3-5.3,3-7.3,5.1c-2,2.2-3.5,4.7-4.6,7.6c-1.1,2.9-1.6,6-1.6,9.3c0,4.2,0.6,8,1.8,11.2c1.2,3.2,2.9,5.9,5,8.1
		c2.1,2.2,4.6,3.8,7.5,4.9c2.9,1.1,6,1.7,9.4,1.7c1.7,0,3.4-0.1,5.2-0.4c1.8-0.3,3.6-0.7,5.3-1.3c1.7-0.6,3.4-1.4,5-2.4
		c1.6-1,3-2.3,4.3-3.8l-3.4-4.2c-0.3-0.3-0.6-0.6-0.9-0.8c-0.3-0.2-0.8-0.3-1.2-0.3c-0.7,0-1.5,0.2-2.2,0.7
		c-0.8,0.4-1.7,0.9-2.7,1.5c-1,0.5-2.2,1-3.6,1.5c-1.4,0.4-3,0.7-4.9,0.7c-3.8,0-6.9-1.2-9.2-3.5c-2.3-2.3-3.7-6-4-10.9h29.9
		c0.5,0,1-0.1,1.3-0.2c0.3-0.1,0.6-0.4,0.8-0.7c0.2-0.3,0.3-0.8,0.4-1.4c0.1-0.6,0.1-1.3,0.1-2.2c0-3.5-0.5-6.6-1.6-9.3
		C1393,211.7,1391.5,209.4,1389.7,207.5z M1363.3,221.1c0.5-3.5,1.8-6.2,3.7-8.1c1.9-1.9,4.6-2.9,8-2.9c1.7,0,3.2,0.3,4.5,0.9
		c1.3,0.6,2.4,1.4,3.2,2.4c0.8,1,1.5,2.2,1.9,3.5c0.4,1.3,0.6,2.8,0.6,4.3H1363.3z"/>
	<path class="st1" d="M1442.9,206.9c-1.4-1.6-3.1-2.9-5.1-3.8c-2-0.9-4.4-1.3-7-1.3c-1.6,0-3.1,0.2-4.5,0.5
		c-1.4,0.3-2.7,0.8-3.9,1.4c-1.2,0.6-2.4,1.3-3.4,2.1c-1.1,0.8-2.1,1.7-3.1,2.7l-0.8-3.8c-0.5-1.4-1.5-2.1-3-2.1h-7.1v48.3h11.6
		v-34.9c1.6-1.6,3.2-2.8,5-3.7c1.8-0.9,3.6-1.4,5.7-1.4c2.7,0,4.8,0.8,6.1,2.4c1.4,1.6,2,3.9,2,6.9v30.7h11.6v-30.7
		c0-2.7-0.4-5.2-1.1-7.4C1445.3,210.4,1444.3,208.5,1442.9,206.9z"/>
	<path class="st1" d="M1482.9,240.9c-0.2-0.2-0.5-0.3-0.8-0.3c-0.3,0-0.6,0.1-0.8,0.3c-0.3,0.2-0.6,0.4-1,0.5
		c-0.4,0.2-0.8,0.4-1.3,0.5c-0.5,0.2-1.1,0.3-1.8,0.3c-1.3,0-2.3-0.4-3-1.3c-0.8-0.8-1.1-2-1.1-3.5v-26.2h12.7V203H1473v-15.2h-6
		c-0.7,0-1.3,0.2-1.7,0.5c-0.5,0.3-0.7,0.8-0.9,1.5l-2.4,13.2l-7.8,1.3v4.6c0,0.8,0.2,1.4,0.7,1.8c0.5,0.4,1,0.6,1.6,0.6h4.9v27
		c0,4.2,1.1,7.4,3.4,9.8s5.5,3.6,9.7,3.6c2.4,0,4.6-0.4,6.8-1.1c2.2-0.7,4.1-1.8,5.8-3.2l-3.5-5.7
		C1483.4,241.3,1483.1,241.1,1482.9,240.9z"/>
</g>
</svg>
